<?xml version="1.0" encoding="UTF-8"?>
<svg version="1.2" baseProfile="tiny-ps" id="Layer_1" xmlns="http://www.w3.org/2000/svg" xmlns:xlink="http://www.w3.org/1999/xlink" viewBox="0 0 288 288">
    <title>MOCOR PRO PTE. LTD</title>
    <g>
        <!-- Generator: Adobe Illustrator 29.8.1, SVG Export Plug-In . SVG Version: 2.1.1 Build 2) -->
        <rect fill="#fff" x="-2.47" y="-1.94" width="292.52" height="292.35" />
    </g>
    <g>
        <g>
            <path fill="#0043ff" fill-rule="evenodd" d="M76.93,198.3h98.44c6.1,0,9.94-6.91,7-12.1l-49.3-86.14c-3.66-6.25-10.42-10.5-18.13-10.5-8.19,0-15.35,4.73-18.77,11.7l-37.45,65.3c-7.63,13.63,2.56,31.73,18.21,31.73Z" />
            <path fill="#0043ff" fill-rule="evenodd" d="M154.54,121.38c-5.8-10.1-2.39-23.08,7.71-28.93,10.02-5.85,22.9-2.4,28.7,7.77l38.09,66.42c5.8,10.1,2.39,23.08-7.71,28.93-10.02,5.85-22.9,2.4-28.7-7.77l-38.09-66.42Z" />
        </g>
    </g>
</svg>
